# Blender 4.0.1
# www.blender.org
mtllib Table.mtl
o Table
v -0.375000 0.000000 0.600000
v -0.375000 0.730000 0.600000
v -0.375000 0.000000 -0.600000
v -0.375000 0.730000 -0.600000
v 0.375000 0.000000 0.600000
v 0.375000 0.730000 0.600000
v 0.375000 0.000000 -0.600000
v 0.375000 0.730000 -0.600000
v -0.375000 0.000000 -0.540000
v -0.375000 0.000000 0.540000
v 0.375000 0.000000 0.540000
v 0.375000 0.000000 -0.540000
v -0.350000 0.683337 -0.600000
v -0.350000 0.000000 -0.600000
v 0.350000 0.000000 -0.600000
v 0.350000 0.683337 -0.600000
v 0.350000 0.683337 0.600000
v -0.350000 0.000000 0.600000
v 0.350000 0.000000 0.600000
v -0.350000 0.683337 0.600000
v -0.350000 0.000000 0.540000
v 0.350000 0.000000 0.540000
v -0.350000 0.000000 -0.540000
v 0.350000 0.000000 -0.540000
v -0.350000 0.683337 -0.540000
v 0.350000 0.683337 -0.540000
v -0.350000 0.683337 0.540000
v 0.350000 0.683337 0.540000
v -0.375000 0.699999 0.540000
v -0.375000 0.699999 -0.600000
v -0.375000 0.708978 -0.600000
v -0.375000 0.699999 -0.540000
v -0.375000 0.699999 0.600000
v -0.375000 0.708978 0.600000
v 0.375000 0.699999 -0.600000
v 0.375000 0.708978 -0.600000
v 0.375000 0.699999 -0.540000
v 0.375000 0.699999 0.600000
v 0.375000 0.708978 0.600000
v 0.375000 0.699999 0.540000
v 0.138124 0.685085 0.590000
v 0.138124 0.708836 0.590000
v 0.138124 0.685085 -0.590000
v 0.138124 0.708836 -0.590000
v 0.161876 0.685085 0.590000
v 0.161876 0.708836 0.590000
v 0.161876 0.685085 -0.590000
v 0.161876 0.708836 -0.590000
v -0.161876 0.685085 0.590000
v -0.161876 0.708836 0.590000
v -0.161876 0.685085 -0.590000
v -0.161876 0.708836 -0.590000
v -0.138124 0.685085 0.590000
v -0.138124 0.708836 0.590000
v -0.138124 0.685085 -0.590000
v -0.138124 0.708836 -0.590000
v 0.375000 0.708978 0.000000
v 0.375000 0.730000 0.000000
v 0.000000 0.730000 0.600000
v 0.000000 0.730000 -0.600000
v 0.000000 0.708978 -0.600000
v 0.000000 0.708978 0.600000
v 0.000000 0.708978 0.000000
v 0.000000 0.730000 0.000000
v -0.187500 0.708978 0.000000
v -0.187500 0.730000 0.600000
v -0.187500 0.730000 -0.600000
v -0.187500 0.708978 -0.600000
v -0.187500 0.708978 0.600000
v -0.187500 0.730000 0.000000
v -0.375000 0.708978 0.300000
v 0.375000 0.708978 0.300000
v -0.375000 0.730000 0.300000
v 0.375000 0.730000 0.300000
v 0.000000 0.708978 0.300000
v 0.000000 0.730000 0.300000
v -0.187500 0.708978 0.300000
v -0.187500 0.730000 0.300000
v -0.375000 0.730000 -0.300000
v 0.375000 0.730000 -0.300000
v -0.375000 0.708978 -0.300000
v 0.375000 0.708978 -0.300000
v 0.000000 0.730000 -0.300000
v 0.000000 0.708978 -0.300000
v -0.187500 0.708978 -0.300000
v -0.187500 0.730000 -0.300000
v -0.375000 0.730000 0.150000
v 0.375000 0.730000 0.150000
v -0.375000 0.708978 0.150000
v 0.375000 0.708978 0.150000
v 0.000000 0.708978 0.150000
v 0.000000 0.730000 0.150000
v -0.187500 0.708978 0.150000
v -0.187500 0.730000 0.150000
v -0.375000 0.708978 -0.150000
v 0.375000 0.708978 -0.150000
v 0.000000 0.730000 -0.150000
v 0.000000 0.708978 -0.150000
v -0.187500 0.708978 -0.150000
v -0.187500 0.730000 -0.150000
v -0.375000 0.730000 -0.150000
v 0.375000 0.730000 -0.150000
v -0.312250 0.708978 0.000000
v -0.281250 0.730000 0.600000
v -0.281250 0.730000 -0.600000
v -0.281250 0.708978 -0.600000
v -0.281250 0.708978 0.600000
v -0.312250 0.730000 0.000000
v -0.281250 0.708978 0.300000
v -0.281250 0.730000 0.300000
v -0.281250 0.708978 -0.300000
v -0.281250 0.730000 -0.300000
v -0.281250 0.730000 0.150000
v -0.281250 0.708978 0.150000
v -0.281250 0.708978 -0.150000
v -0.281250 0.730000 -0.150000
v -0.375000 0.730000 0.150580
v -0.373491 0.730000 0.150000
v -0.313748 0.708978 -0.117000
v -0.313748 0.730000 -0.117000
v -0.314125 0.708978 0.117000
v -0.313371 0.730000 0.117000
vn -1.0000 -0.0000 -0.0000
vn -0.0000 -0.0000 -1.0000
vn 1.0000 -0.0000 -0.0000
vn -0.0000 -0.0000 1.0000
vn -0.0000 -1.0000 -0.0000
vn -0.0000 1.0000 -0.0000
vn -0.9223 0.0238 -0.3858
vn -0.9225 -0.0000 0.3859
vt 0.375000 0.012500
vt 0.375000 0.000000
vt 0.614726 0.000000
vt 0.614726 0.012500
vt 0.375000 0.250000
vt 0.375000 0.237500
vt 0.614726 0.237500
vt 0.614726 0.250000
vt 0.617801 0.187500
vt 0.625000 0.187500
vt 0.625000 0.250000
vt 0.617801 0.250000
vt 0.617801 0.375000
vt 0.625000 0.375000
vt 0.625000 0.500000
vt 0.617801 0.500000
vt 0.375000 0.500000
vt 0.375000 0.491667
vt 0.609019 0.491667
vt 0.609020 0.258333
vt 0.375000 0.258333
vt 0.614726 0.500000
vt 0.614726 0.512500
vt 0.375000 0.512500
vt 0.614726 0.750000
vt 0.375000 0.750000
vt 0.375000 0.737500
vt 0.614726 0.737500
vt 0.617801 0.687500
vt 0.625000 0.687500
vt 0.625000 0.750000
vt 0.617801 0.750000
vt 0.614726 1.000000
vt 0.375000 1.000000
vt 0.375000 0.991667
vt 0.609019 0.991667
vt 0.609020 0.758333
vt 0.375000 0.758333
vt 0.617801 0.968750
vt 0.625000 0.968750
vt 0.625000 1.000000
vt 0.617801 1.000000
vt 0.125000 0.750000
vt 0.125000 0.737500
vt 0.133333 0.737500
vt 0.133333 0.750000
vt 0.366667 0.737500
vt 0.366667 0.750000
vt 0.366667 0.512500
vt 0.366667 0.500000
vt 0.125000 0.512500
vt 0.125000 0.500000
vt 0.133333 0.500000
vt 0.133333 0.512500
vt 0.843750 0.687500
vt 0.875000 0.687500
vt 0.875000 0.750000
vt 0.843750 0.750000
vt 0.624455 0.281250
vt 0.391739 0.281250
vt 0.391739 0.287500
vt 0.618915 0.287500
vt 0.618915 0.462500
vt 0.391739 0.462500
vt 0.391739 0.468750
vt 0.624455 0.468750
vt 0.391739 0.781250
vt 0.391739 0.787500
vt 0.618915 0.787500
vt 0.618915 0.962500
vt 0.391739 0.962500
vt 0.391739 0.968750
vt 0.624455 0.968750
vt 0.624455 0.781250
vt 0.625000 0.036243
vt 0.391954 0.036243
vt 0.391954 0.045118
vt 0.625000 0.045118
vt 0.391954 0.213757
vt 0.625000 0.213757
vt 0.625000 0.204882
vt 0.391954 0.204882
vt 0.625000 0.545118
vt 0.625000 0.536243
vt 0.391954 0.536243
vt 0.391954 0.545118
vt 0.625000 0.713757
vt 0.625000 0.704882
vt 0.391954 0.704882
vt 0.391954 0.713757
vt 0.875000 0.536243
vt 0.875000 0.545118
vt 0.875000 0.713757
vt 0.875000 0.704882
vt 0.296875 0.625150
vt 0.296875 0.624850
vt 0.203125 0.624850
vt 0.203125 0.625150
vt 0.203125 0.630550
vt 0.203125 0.630850
vt 0.296875 0.630850
vt 0.296875 0.630550
vt 0.750000 0.629350
vt 0.703125 0.629350
vt 0.703125 0.630850
vt 0.750000 0.630850
vt 0.625000 0.000000
vt 0.875000 0.500000
vt 0.750000 0.627100
vt 0.703125 0.627100
vt 0.703125 0.627850
vt 0.750000 0.627850
vt 0.617801 0.593750
vt 0.625000 0.593750
vt 0.625000 0.625000
vt 0.617801 0.625000
vt 0.843750 0.625000
vt 0.785156 0.627850
vt 0.791016 0.628225
vt 0.617801 0.093750
vt 0.875000 0.656250
vt 0.874497 0.656250
vt 0.859123 0.640625
vt 0.750000 0.593750
vt 0.750000 0.625000
vt 0.773438 0.627100
vt 0.773438 0.627850
vt 0.773438 0.629350
vt 0.773438 0.630850
vt 0.750000 0.687500
vt 0.750000 0.750000
vt 0.625000 0.875000
vt 0.617801 0.875000
vt 0.617801 0.312500
vt 0.625000 0.312500
vt 0.617801 0.281250
vt 0.625000 0.281250
vt 0.785156 0.629350
vt 0.785156 0.630850
vt 0.785156 0.627100
vt 0.812500 0.593750
vt 0.812500 0.625000
vt 0.812500 0.687500
vt 0.812500 0.750000
vt 0.625000 0.937500
vt 0.617801 0.937500
vt 0.750000 0.656250
vt 0.812500 0.656250
vt 0.785156 0.628600
vt 0.773438 0.628600
vt 0.625000 0.656250
vt 0.750000 0.628600
vt 0.617801 0.000000
vt 0.625000 0.062500
vt 0.617801 0.062500
vt 0.703125 0.628600
vt 0.843750 0.656250
vt 0.875000 0.656371
vt 0.617801 0.656250
vt 0.750000 0.500000
vt 0.812500 0.500000
vt 0.812500 0.562500
vt 0.750000 0.562500
vt 0.785156 0.624850
vt 0.773438 0.624850
vt 0.773438 0.626350
vt 0.785156 0.626350
vt 0.750000 0.624850
vt 0.750000 0.626350
vt 0.625000 0.562500
vt 0.617801 0.562500
vt 0.843750 0.500000
vt 0.875000 0.562500
vt 0.843750 0.562500
vt 0.703125 0.624850
vt 0.703125 0.626350
vt 0.617801 0.156250
vt 0.625000 0.156250
vt 0.625000 0.093629
vt 0.625000 0.093750
vt 0.000000 0.000000
vt 0.843750 0.593750
vt 0.875000 0.593750
vt 0.796875 0.626350
vt 0.796875 0.627100
vt 0.796875 0.624850
vt 0.796875 0.628600
vt 0.796875 0.629350
vt 0.791016 0.627475
vt 0.796875 0.630850
s 0
f 10/1/1 1/2/1 33/3/1 29/4/1
f 3/5/1 9/6/1 32/7/1 30/8/1
f 81/9/1 79/10/1 4/11/1 31/12/1
f 61/13/2 60/14/2 8/15/2 36/16/2
f 7/17/2 15/18/2 16/19/2 13/20/2 14/21/2 3/5/2 30/8/2 35/22/2
f 37/23/3 12/24/3 7/17/3 35/22/3
f 38/25/3 5/26/3 11/27/3 40/28/3
f 72/29/3 74/30/3 6/31/3 39/32/3
f 33/33/4 1/34/4 18/35/4 20/36/4 17/37/4 19/38/4 5/26/4 38/25/4
f 107/39/4 104/40/4 2/41/4 34/42/4
f 1/43/5 10/44/5 21/45/5 18/46/5
f 22/47/5 11/27/5 5/26/5 19/48/5
f 7/17/5 12/24/5 24/49/5 15/50/5
f 9/51/5 3/52/5 14/53/5 23/54/5
f 110/55/6 73/56/6 2/57/6 104/58/6
f 32/59/4 9/60/4 23/61/4 25/62/4 26/63/4 24/64/4 12/65/4 37/66/4
f 11/67/2 22/68/2 28/69/2 27/70/2 21/71/2 10/72/2 29/73/2 40/74/2
f 20/75/3 18/76/3 21/77/3 27/78/3
f 14/79/3 13/80/3 25/81/3 23/82/3
f 26/83/1 16/84/1 15/85/1 24/86/1
f 17/87/1 28/88/1 22/89/1 19/90/1
f 13/91/5 16/84/5 26/83/5 25/92/5
f 17/87/5 20/93/5 27/94/5 28/88/5
f 37/95/6 35/96/6 30/97/6 32/98/6
f 29/99/6 33/100/6 38/101/6 40/102/6
f 75/103/5 72/104/5 39/105/5 62/106/5
f 41/2/1 42/107/1 44/11/1 43/5/1
f 43/5/2 44/11/2 48/15/2 47/17/2
f 47/17/3 48/15/3 46/31/3 45/26/3
f 45/26/4 46/31/4 42/41/4 41/34/4
f 43/52/5 47/17/5 45/26/5 41/43/5
f 48/15/6 44/108/6 42/57/6 46/31/6
f 49/2/1 50/107/1 52/11/1 51/5/1
f 51/5/2 52/11/2 56/15/2 55/17/2
f 55/17/3 56/15/3 54/31/3 53/26/3
f 53/26/4 54/31/4 50/41/4 49/34/4
f 51/52/5 55/17/5 53/26/5 49/43/5
f 56/15/6 52/108/6 50/57/6 54/31/6
f 98/109/5 96/110/5 57/111/5 63/112/5
f 96/113/3 102/114/3 58/115/3 57/116/3
f 108/117/7 103/118/7 121/119/7 89/120/7 87/121/7 118/122/7 122/123/7
f 102/114/6 97/124/6 64/125/6 58/115/6
f 99/126/5 98/109/5 63/112/5 65/127/5
f 77/128/5 75/103/5 62/106/5 69/129/5
f 74/30/6 76/130/6 59/131/6 6/31/6
f 39/32/4 6/31/4 59/132/4 62/133/4
f 68/134/2 67/135/2 60/14/2 61/13/2
f 106/136/2 105/137/2 67/135/2 68/134/2
f 109/138/5 77/128/5 69/129/5 107/139/5
f 115/140/5 99/126/5 65/127/5 103/118/5
f 97/124/6 100/141/6 70/142/6 64/125/6
f 76/130/6 78/143/6 66/144/6 59/131/6
f 62/133/4 59/132/4 66/145/4 69/146/4
f 92/147/6 94/148/6 78/143/6 76/130/6
f 114/149/5 93/150/5 77/128/5 109/138/5
f 88/151/6 92/147/6 76/130/6 74/30/6
f 93/150/5 91/152/5 75/103/5 77/128/5
f 34/153/1 2/107/1 73/154/1 71/155/1
f 91/152/5 90/156/5 72/104/5 75/103/5
f 113/157/6 118/122/6 117/158/6 73/56/6 110/55/6
f 90/159/3 88/151/3 74/30/3 72/29/3
f 60/160/6 67/161/6 86/162/6 83/163/6
f 106/164/5 68/165/5 85/166/5 111/167/5
f 68/165/5 61/168/5 84/169/5 85/166/5
f 8/15/6 60/160/6 83/163/6 80/170/6
f 36/16/3 8/15/3 80/170/3 82/171/3
f 105/172/6 4/108/6 79/173/6 112/174/6
f 61/168/5 36/175/5 82/176/5 84/169/5
f 95/177/1 101/178/1 79/10/1 81/9/1
f 57/116/3 58/115/3 88/151/3 90/159/3
f 108/117/6 122/123/6 118/122/6 113/157/6
f 63/112/5 57/111/5 90/156/5 91/152/5
f 65/127/5 63/112/5 91/152/5 93/150/5
f 58/115/6 64/125/6 92/147/6 88/151/6
f 103/118/5 65/127/5 93/150/5 114/149/5
f 64/125/6 70/142/6 94/148/6 92/147/6
f 71/155/1 73/154/1 117/179/1 87/180/1 89/120/1
f 120/181/6 108/117/6 116/182/6 101/183/6
f 83/163/6 86/162/6 100/141/6 97/124/6
f 111/167/5 85/166/5 99/126/5 115/140/5
f 85/166/5 84/169/5 98/109/5 99/126/5
f 80/170/6 83/163/6 97/124/6 102/114/6
f 82/171/3 80/170/3 102/114/3 96/113/3
f 112/174/6 79/173/6 101/183/6 116/182/6
f 84/169/5 82/176/5 96/110/5 98/109/5
f 86/162/6 112/174/6 116/182/6 100/141/6
f 81/184/5 111/167/5 115/140/5 95/185/5
f 70/142/6 108/117/6 113/157/6 94/148/6
f 67/161/6 105/172/6 112/174/6 86/162/6
f 31/186/5 106/164/5 111/167/5 81/184/5
f 94/148/6 113/157/6 110/55/6 78/143/6
f 89/187/5 114/149/5 109/138/5 71/188/5
f 103/118/8 108/117/8 120/181/8 101/178/8 95/185/8 119/189/8
f 71/188/5 109/138/5 107/139/5 34/190/5
f 31/12/2 4/11/2 105/137/2 106/136/2
f 100/141/6 116/182/6 108/117/6 70/142/6
f 78/143/6 110/55/6 104/58/6 66/144/6
f 69/146/4 66/145/4 104/40/4 107/39/4
f 117/158/6 118/122/6 87/121/6
f 103/118/5 119/189/5 95/185/5 115/140/5
f 89/187/5 121/119/5 103/118/5 114/149/5
